<svg width="160" height="160" viewBox="0 0 160 160" fill="none" xmlns="http://www.w3.org/2000/svg">
  <path d="M20 146V38C20 18.1177 36.1177 2 56 2H104C123.882 2 140 18.1177 140 38V146" stroke="#0B132B" stroke-opacity="0.12" stroke-width="3" stroke-linecap="round"/>
  <path d="M93.6647 35.0992C81.0914 41.7961 72.5273 55.0586 72.5273 70.3211C72.5273 92.3566 90.3905 110.22 112.426 110.22C117.449 110.22 122.255 109.292 126.684 107.598C119.687 120.727 105.848 129.664 89.9197 129.664C66.9078 129.664 48.2539 111.01 48.2539 87.9978C48.2539 64.986 66.9078 46.332 89.9197 46.332C91.1918 46.332 92.4512 46.389 93.6647 46.5008V35.0992Z" fill="#EFBEB7"/>
  <path d="M108.936 22.4663L110.796 27.4744L115.804 29.3342L110.796 31.194L108.936 36.2021L107.077 31.194L102.068 29.3342L107.077 27.4744L108.936 22.4663Z" fill="#EFBEB7"/>
  <path d="M124.964 39.5981L127.57 46.6112L134.583 49.2168L127.57 51.8224L124.964 58.8355L122.359 51.8224L115.346 49.2168L122.359 46.6112L124.964 39.5981Z" fill="#EFBEB7"/>
  <path d="M135.815 72.7703L137.302 76.7734L141.305 78.2605L137.302 79.7477L135.815 83.7508L134.328 79.7477L130.325 78.2605L134.328 76.7734L135.815 72.7703Z" fill="#EFBEB7"/>
  <path d="M144.165 51.5112L145.653 55.5144L149.656 57.0015L145.653 58.4887L144.165 62.4918L142.678 58.4887L138.675 57.0015L142.678 55.5144L144.165 51.5112Z" fill="#EFBEB7"/>
</svg>
